# xmcd
#
# Track frame offsets: 
#        150
#        8312
#        23050
#        41625
#        54075
#        66087
#        77962
#        83600
#        95712
#        112562
#        125212
#        139387
#        149237
#        160600
#        167287
#        182312
#        199062
#        208662
#        218137
#        231912
#
# Disc length: 3349 seconds
#
# Revision: 2
# Processed by: cddbd v1.5.2PL0 Copyright (c) Steve Scherf et al.
# Submitted via: ExactAudioCopyFreeDBPlugin 1.0
#
DISCID=070d1314
DTITLE=Various Artist - A Pop 'N' Country Christmas - Disc 2
DYEAR=1999
DGENRE=Christmas
TTITLE0=Tennesse Ernie Ford - Joy To The World
TTITLE1=Andy Williams - O Holy Night
TTITLE2=Tanya Tucker - What Child Is This?
TTITLE3=Bing Crosby - Do You Hear What I Hear?
TTITLE4=Bobbie Gentry - Away In A Manger
TTITLE5=Tennessee Ernie Ford - Angels We Have Heard On High
TTITLE6=Andy Williams - Silent Night
TTITLE7=Ben E. King with The New York Stage Orchestra and Choir - The 
TTITLE7=First Noël
TTITLE8=Gary Morris - The Little Drummer Boy
TTITLE9=The Oak Ridge Boys - O Little Town Of Bethlehem
TTITLE10=Marty Robbins - Hark! The Herald Angels Sing
TTITLE11=Peggy Lee - Deck The Halls (With Boughs Of Holly)
TTITLE12=Al Martino - O Come, All Ye Faithful (Adeste Fideles)
TTITLE13=Kenny Rogers - God Rest Ye Merry, Gentlemen
TTITLE14=Ella Fitzgerald - It Came Upon A Midnight Clear
TTITLE15=Glen Campbell - I Saw Three Ships
TTITLE16=The Kingston Trio - Sing We Noël
TTITLE17=B.J. Thomas with The London Philharmonic Orchestra - We Wish 
TTITLE17=You A Merry Christmas
TTITLE18=Jimmie Rodgers - The Twelve Days Of Christmas
TTITLE19=Ferrante and Teicher, their Pianos and Orchestra - Medley: Deck
TTITLE19=The Halls - It Came Upon The Midnight Clear - Good King Wences
TTITLE19=las - Angels We Have Heard On High
EXTD=
EXTT0=
EXTT1=
EXTT2=
EXTT3=
EXTT4=
EXTT5=
EXTT6=
EXTT7=
EXTT8=
EXTT9=
EXTT10=
EXTT11=
EXTT12=
EXTT13=
EXTT14=
EXTT15=
EXTT16=
EXTT17=
EXTT18=
EXTT19=
PLAYORDER=
